name not saved
datacolumns 19
datarows 51
range 21.04 21.09
endheader
time	ground_force1_vx	ground_force1_vy	ground_force1_vz	ground_force1_px	ground_force1_py	ground_force1_pz	ground_force2_vx	ground_force2_vy	ground_force2_vz	ground_force2_px	ground_force2_py	ground_force2_pz	ground_torque1_x	ground_torque1_y	ground_torque1_z	ground_torque2_x	ground_torque2_y	ground_torque2_z
21.04	-8.898404632	494.9221587	48.79886966	-0.08152839915	0	0.2697821892	2.81053637	443.778668	-58.72481541	-0.1007424959	0	-0.2923651857	0	4.482807992	0	0	0.5247064767	0
21.041	-8.851459774	494.7455242	48.92987316	-0.08115431033	0	0.2698211509	2.704464272	443.7434079	-58.68063991	-0.100053699	0	-0.2923739797	0	4.563689848	0	0	0.4724743374	0
21.042	-8.805026764	494.5620625	49.06271304	-0.08077510024	0	0.2698606941	2.596009824	443.7052335	-58.63575024	-0.09935724097	0	-0.2923832457	0	4.645426568	0	0	0.4198783776	0
21.043	-8.759146375	494.3717302	49.19732235	-0.08039089945	0	0.2699007979	2.485203366	443.6641509	-58.59014851	-0.09865344171	0	-0.2923929831	0	4.727985165	0	0	0.3669449338	0
21.044	-8.713858799	494.1744894	49.33363169	-0.08000184231	0	0.2699414406	2.372077885	443.6201717	-58.54383659	-0.0979426285	0	-0.2924031907	0	4.811332109	0	0	0.3137005632	0
21.045	-8.669203586	493.9703084	49.47156925	-0.07960806677	0	0.2699825997	2.256669	443.5733126	-58.49681612	-0.09722513543	0	-0.2924138665	0	4.895433376	0	0	0.2601720097	0
21.046	-8.625219589	493.7591616	49.6110609	-0.07920971423	0	0.2700242522	2.139014929	443.5235957	-58.44908847	-0.09650130298	0	-0.2924250077	0	4.980254501	0	0	0.20638617	0
21.047	-8.581944913	493.5410291	49.75203027	-0.07880692936	0	0.270066374	2.019156464	443.4710484	-58.4006547	-0.09577147768	0	-0.2924366112	0	5.065760629	0	0	0.1523700607	0
21.048	-8.539416865	493.3158976	49.89439885	-0.07839985995	0	0.2701089408	1.897136926	443.4157036	-58.35151552	-0.09503601159	0	-0.2924486727	0	5.151916568	0	0	0.09815078604	0
21.049	-8.497671909	493.0837599	50.03808605	-0.0779886567	0	0.2701519272	1.773002131	443.3575998	-58.30167128	-0.09429526197	0	-0.2924611876	0	5.23868684	0	0	0.04375550577	0
21.05	-8.456745623	492.8446154	50.18300931	-0.07757347311	0	0.2701953076	1.646800337	443.2967806	-58.25112195	-0.09354959077	0	-0.2924741504	0	5.326035737	0	0	-0.01078859529	0
21.051	-8.416672661	492.5984697	50.32908418	-0.07715446525	0	0.2702390556	1.518582192	443.2332954	-58.19986705	-0.0927993642	0	-0.292487555	0	5.413927367	0	0	-0.06545433738	0
21.052	-8.377486718	492.3453352	50.47622445	-0.07673179161	0	0.2702831442	1.388400678	443.1671989	-58.14790566	-0.09204495233	0	-0.2925013947	0	5.502325714	0	0	-0.1202145749	0
21.053	-8.339220499	492.0852308	50.6243422	-0.07630561295	0	0.2703275462	1.256311042	443.0985514	-58.09523638	-0.0912867286	0	-0.2925156617	0	5.591194686	0	0	-0.1750422245	0
21.054	-8.301905689	491.8181819	50.77334795	-0.07587609208	0	0.2703722336	1.122370736	443.0274185	-58.04185731	-0.09052506941	0	-0.2925303481	0	5.680498168	0	0	-0.2299102923	0
21.055	-8.265572935	491.5442208	50.92315075	-0.07544339374	0	0.2704171781	0.9866393391	442.9538711	-57.98776601	-0.08976035365	0	-0.2925454448	0	5.770200072	0	0	-0.2847919	0
21.056	-8.230251823	491.2633863	51.07365827	-0.07500768439	0	0.2704623511	0.8491784798	442.8779854	-57.93295951	-0.08899296226	0	-0.2925609422	0	5.860264391	0	0	-0.3396603102	0
21.057	-8.195970864	490.9757241	51.22477693	-0.07456913206	0	0.2705077236	0.7100517578	442.7998429	-57.87743427	-0.08822327778	0	-0.2925768302	0	5.950655246	0	0	-0.3944889508	0
21.058	-8.16275748	490.6812866	51.37641203	-0.07412790619	0	0.2705532661	0.5693246572	442.7195301	-57.82118615	-0.08745168392	0	-0.2925930978	0	6.041336936	0	0	-0.4492514381	0
21.059	-8.130638	490.3801328	51.52846781	-0.07368417744	0	0.270598949	0.4270644584	442.6371387	-57.76421042	-0.08667856511	0	-0.2926097334	0	6.132273986	0	0	-0.5039215995	0
21.06	-8.099637653	490.0723284	51.68084759	-0.07323811754	0	0.2706447425	0.2833401459	442.552765	-57.70650174	-0.08590430605	0	-0.2926267249	0	6.223431196	0	0	-0.5584734949	0
21.061	-8.069780565	489.7579459	51.83345391	-0.07278989912	0	0.2706906165	0.1382223136	442.4665102	-57.64805415	-0.08512929127	0	-0.2926440595	0	6.314773682	0	0	-0.6128814376	0
21.062	-8.041089769	489.4370643	51.98618861	-0.07233969555	0	0.2707365407	-0.008216931987	442.3784803	-57.58886105	-0.08435390472	0	-0.2926617236	0	6.406266925	0	0	-0.6671200142	0
21.063	-8.013587201	489.1097694	52.13895293	-0.07188768079	0	0.2707824846	-0.1559040718	442.2887853	-57.5289152	-0.0835785293	0	-0.2926797033	0	6.497876815	0	0	-0.7211641038	0
21.064	-7.987293717	488.7761532	52.29164767	-0.0714340292	0	0.2708284179	-0.3047642751	442.19754	-57.46820871	-0.08280354645	0	-0.2926979841	0	6.589569686	0	0	-0.7749888965	0
21.065	-7.9622291	488.4363145	52.44417327	-0.07097891541	0	0.27087431	-0.4547215025	442.1048629	-57.40673308	-0.08202933573	0	-0.2927165507	0	6.681312363	0	0	-0.8285699118	0
21.066	-7.938412076	488.0903583	52.59642993	-0.07052251413	0	0.2709201302	-0.6056986102	442.0108767	-57.34447913	-0.08125627438	0	-0.2927353875	0	6.773072198	0	0	-0.8818830151	0
21.067	-7.915860332	487.7383957	52.74831772	-0.07006500004	0	0.2709658479	-0.7576174546	441.9157075	-57.28143707	-0.08048473695	0	-0.2927544784	0	6.864817105	0	0	-0.9349044356	0
21.068	-7.894590534	487.3805444	52.89973667	-0.0696065476	0	0.2710114327	-0.9103989983	441.8194853	-57.21759646	-0.07971509481	0	-0.2927738068	0	6.956515597	0	0	-0.9876107819	0
21.069	-7.874618348	487.0169279	53.05058693	-0.0691473309	0	0.271056854	-1.063963416	441.722343	-57.15294627	-0.07894771582	0	-0.2927933556	0	7.048136819	0	0	-1.039979059	0
21.07	-7.855958465	486.6476757	53.20076881	-0.06868752353	0	0.2711020814	-1.2182302	441.6244167	-57.08747482	-0.0781829639	0	-0.2928131072	0	7.13965058	0	0	-1.091986682	0
21.071	-7.838624628	486.272923	53.35018292	-0.0682272984	0	0.2711470846	-1.373118267	441.5258454	-57.02116987	-0.07742119863	0	-0.2928330439	0	7.231027381	0	0	-1.143611494	0
21.072	-7.822629659	485.8928108	53.49873028	-0.06776682764	0	0.2711918335	-1.528546063	441.4267706	-56.95401857	-0.07666277487	0	-0.2928531475	0	7.322238446	0	0	-1.19483178	0
21.073	-7.807985486	485.5074857	53.64631238	-0.06730628239	0	0.2712362982	-1.684431669	441.327336	-56.88600753	-0.0759080424	0	-0.2928733994	0	7.413255744	0	0	-1.245626279	0
21.074	-7.794703178	485.1170996	53.79283131	-0.06684583271	0	0.2712804487	-1.840692905	441.2276874	-56.81712281	-0.0751573455	0	-0.2928937807	0	7.504052016	0	0	-1.295974203	0
21.075	-7.782792978	484.7218094	53.93818984	-0.0663856474	0	0.2713242557	-1.997247435	441.1279724	-56.74734996	-0.07441102262	0	-0.2929142725	0	7.594600798	0	0	-1.345855245	0
21.076	-7.772264332	484.3217774	54.08229151	-0.06592589391	0	0.2713676898	-2.154012869	441.0283402	-56.676674	-0.07366940603	0	-0.2929348554	0	7.68487644	0	0	-1.395249599	0
21.077	-7.763125933	483.9171704	54.22504073	-0.06546673815	0	0.2714107219	-2.310906864	440.928941	-56.60507953	-0.07293282144	0	-0.2929555101	0	7.774854125	0	0	-1.444137968	0
21.078	-7.755385753	483.50816	54.36634285	-0.06500834439	0	0.2714533233	-2.467847226	440.8299261	-56.53255065	-0.07220158767	0	-0.2929762169	0	7.864509889	0	0	-1.492501576	0
21.079	-7.749051086	483.0949222	54.50610422	-0.0645508751	0	0.2714954655	-2.62475201	440.7314474	-56.4590711	-0.07147601634	0	-0.2929969561	0	7.953820632	0	0	-1.540322185	0
21.08	-7.744128583	482.6776374	54.64423233	-0.06409449086	0	0.2715371203	-2.781539616	440.6336572	-56.38462417	-0.07075641151	0	-0.2930177081	0	8.042764134	0	0	-1.587582103	0
21.081	-7.740624301	482.2564899	54.78063582	-0.0636393502	0	0.27157826	-2.938128889	440.5367078	-56.30919284	-0.0700430694	0	-0.293038453	0	8.13131907	0	0	-1.634264192	0
21.082	-7.738543741	481.8316679	54.9152246	-0.0631856095	0	0.2716188569	-3.094439214	440.4407514	-56.23275973	-0.06933627807	0	-0.2930591711	0	8.219465013	0	0	-1.680351885	0
21.083	-7.737891893	481.4033631	55.04790987	-0.06273342286	0	0.271658884	-3.250390608	440.3459396	-56.15530717	-0.06863631715	0	-0.2930798427	0	8.307182449	0	0	-1.725829189	0
21.084	-7.738673285	480.9717707	55.17860423	-0.06228294196	0	0.2716983146	-3.405903815	440.2524231	-56.07681723	-0.06794345752	0	-0.2931004482	0	8.394452784	0	0	-1.770680694	0
21.085	-7.740892023	480.537089	55.30722172	-0.06183431601	0	0.2717371222	-3.560900397	440.1603516	-55.99727171	-0.06725796111	0	-0.2931209681	0	8.481258344	0	0	-1.814891586	0
21.086	-7.744551845	480.0995193	55.43367789	-0.06138769155	0	0.2717752808	-3.715302823	440.0698734	-55.91665222	-0.06658008057	0	-0.2931413832	0	8.567582385	0	0	-1.858447647	0
21.087	-7.749656165	479.6592657	55.55788983	-0.06094321242	0	0.2718127649	-3.869034555	439.981135	-55.83494019	-0.06591005909	0	-0.2931616743	0	8.653409092	0	0	-1.901335267	0
21.088	-7.756208121	479.2165344	55.67977626	-0.06050101962	0	0.2718495492	-4.022020138	439.894281	-55.75211689	-0.06524813013	0	-0.2931818225	0	8.738723581	0	0	-1.943541443	0
21.089	-7.764210626	478.7715342	55.79925753	-0.06006125121	0	0.271885609	-4.174185281	439.8094536	-55.66816347	-0.06459451725	0	-0.2932018092	0	8.823511898	0	0	-1.985053791	0
21.09	-7.773666413	478.3244758	55.91625572	-0.05962404221	0	0.2719209199	-4.325456936	439.7267925	-55.58306096	-0.06394943385	0	-0.2932216163	0	8.907761017	0	0	-2.025860542	0
